<svg width="50" height="50" viewBox="0 0 50 50" fill="none" xmlns="http://www.w3.org/2000/svg">
<path d="M25 0C11.1875 0 3.64886e-06 11.4708 3.64886e-06 25.633C-0.0028319 31.014 1.64704 36.2594 4.71554 40.6249C7.78405 44.9903 12.1154 48.2543 17.095 49.9535C18.345 50.1765 18.8125 49.4076 18.8125 48.7334C18.8125 48.1259 18.78 46.1086 18.78 43.9605C12.5 45.1474 10.875 42.3918 10.375 40.9487C10.0925 40.2104 8.875 37.9368 7.8125 37.3267C6.9375 36.8474 5.6875 35.6606 7.78 35.6298C9.75 35.5965 11.155 37.4882 11.625 38.2572C13.875 42.1329 17.47 41.0435 18.905 40.3719C19.125 38.7058 19.78 37.5856 20.5 36.9448C14.9375 36.304 9.125 34.0919 9.125 24.2872C9.125 21.4984 10.0925 19.194 11.6875 17.3971C11.4375 16.7563 10.5625 14.1289 11.9375 10.6044C11.9375 10.6044 14.03 9.93278 18.8125 13.2343C20.8477 12.6552 22.9504 12.3637 25.0625 12.3679C27.1875 12.3679 29.3125 12.655 31.3125 13.2317C36.0925 9.89945 38.1875 10.6069 38.1875 10.6069C39.5625 14.1315 38.6875 16.7588 38.4375 17.3997C40.03 19.194 41 21.4676 41 24.2872C41 34.1252 35.1575 36.304 29.595 36.9448C30.5 37.7446 31.2825 39.2825 31.2825 41.6869C31.2825 45.114 31.25 47.8696 31.25 48.736C31.25 49.4076 31.72 50.2073 32.97 49.951C37.9326 48.233 42.2448 44.9628 45.2998 40.6005C48.3547 36.2381 49.9986 31.0034 50 25.633C50 11.4708 38.8125 0 25 0Z" fill="white"/>
</svg>
