<svg width="50" height="50" viewBox="0 0 50 50" fill="none" xmlns="http://www.w3.org/2000/svg">
<path d="M48 0H2C0.89375 0 0 0.89375 0 2V48C0 49.1063 0.89375 50 2 50H48C49.1063 50 50 49.1063 50 48V2C50 0.89375 49.1063 0 48 0ZM41 12.8563L38.45 15.3C38.225 15.4687 38.1187 15.7438 38.1625 16.0125V33.9938C38.1187 34.2688 38.225 34.5437 38.45 34.7062L40.95 37.15V37.6937H28.4V37.175L30.9813 34.6688C31.2375 34.4125 31.2375 34.3375 31.2375 33.9562V19.4062L24.05 37.6312H23.0812L14.7188 19.4062V31.625C14.6437 32.1375 14.825 32.6563 15.1875 33.025L18.55 37.0938V37.6375H9V37.0938L12.3625 33.025C12.5397 32.842 12.6715 32.6201 12.7475 32.3769C12.8235 32.1338 12.8414 31.8763 12.8 31.625V17.5C12.8437 17.1062 12.6937 16.725 12.3937 16.4562L9.40625 12.8563V12.3125H18.6875L25.85 28.0312L32.1562 12.325H41V12.8563Z" fill="white"/>
</svg>
