<svg width="40" height="40" viewBox="0 0 64 64" fill="none" xmlns="http://www.w3.org/2000/svg">
<path d="M25.45 29.0214C26.0714 28.5714 26.3714 27.8286 26.3714 26.8071C26.3929 26.3214 26.2929 25.8429 26.0786 25.4071C25.8857 25.0571 25.6 24.7643 25.25 24.5571C24.8871 24.3371 24.484 24.1914 24.0643 24.1286C23.6071 24.0429 23.1429 24 22.6857 24.0071H17.6643V29.7H23.1C24.0357 29.7071 24.8286 29.4786 25.45 29.0214V29.0214ZM26.2929 34.1643C25.5929 33.6286 24.6571 33.3643 23.4929 33.3643H17.65V40.0786H23.3786C23.9143 40.0786 24.4071 40.0286 24.8857 39.9286C25.3385 39.84 25.7701 39.6654 26.1571 39.4143C26.5214 39.1786 26.8143 38.8571 27.0357 38.4429C27.25 38.0286 27.3571 37.5 27.3571 36.8643C27.3571 35.6 27 34.7071 26.2929 34.1643V34.1643ZM32 0C14.3286 0 0 14.3286 0 32C0 49.6714 14.3286 64 32 64C49.6714 64 64 49.6714 64 32C64 14.3286 49.6714 0 32 0ZM38.1786 20.4929H48.0643V22.9H38.1786V20.4929ZM32 40.3429C31.5376 41.2206 30.8774 41.9786 30.0714 42.5571C29.2286 43.1429 28.2929 43.5714 27.3 43.8214C26.2612 44.0998 25.1897 44.2367 24.1143 44.2286H12.2857V19.8643H23.7857C24.95 19.8643 26.0071 19.9714 26.9714 20.1714C27.9286 20.3714 28.7429 20.7143 29.4286 21.1786C30.1071 21.6429 30.6429 22.2643 31.0214 23.0357C31.3929 23.8 31.5857 24.7571 31.5857 25.8929C31.5857 27.1214 31.3071 28.1357 30.75 28.9571C30.1857 29.7786 29.3714 30.4429 28.2643 30.9643C29.7714 31.3929 30.8786 32.1571 31.6071 33.2286C32.35 34.3143 32.7143 35.6143 32.7143 37.1429C32.7143 38.3857 32.4786 39.45 32 40.3429ZM51.9143 36.5714H39.1714C39.1714 37.9571 39.65 39.2857 40.3714 40C41.1 40.7071 42.1429 41.0643 43.5071 41.0643C44.4929 41.0643 45.3286 40.8143 46.0429 40.3214C46.75 39.8286 47.1786 39.3071 47.3357 38.7643H51.6071C50.9214 40.8857 49.8786 42.4 48.4643 43.3143C47.0643 44.2286 45.35 44.6857 43.3571 44.6857C41.9643 44.6857 40.7143 44.4571 39.5929 44.0214C38.5143 43.6 37.5429 42.9571 36.7429 42.1286C35.9541 41.2777 35.3444 40.2769 34.95 39.1857C34.5143 37.9786 34.3 36.7071 34.3143 35.4286C34.3143 34.1071 34.5357 32.8786 34.9643 31.7357C35.7857 29.5143 37.4929 27.7357 39.6714 26.8143C40.8357 26.3286 42.0857 26.0857 43.35 26.1C44.85 26.1 46.15 26.3857 47.2786 26.9714C48.365 27.5307 49.3084 28.3323 50.0357 29.3143C50.7571 30.2929 51.2643 31.4071 51.5857 32.6643C51.8929 33.9 52 35.2 51.9143 36.5714V36.5714ZM43.2 29.7429C42.4286 29.7429 41.7786 29.8786 41.2786 30.1429C40.7786 30.4071 40.3643 30.7357 40.05 31.1143C39.7507 31.4798 39.5295 31.9028 39.4 32.3571C39.2857 32.7357 39.2071 33.1214 39.1786 33.5143H47.0714C46.9571 32.2786 46.5286 31.3643 45.9571 30.7214C45.3571 30.0857 44.3929 29.7429 43.2 29.7429V29.7429Z" fill="white"/>
</svg>
