<svg width="40" height="40" viewBox="0 0 65 63" fill="none" xmlns="http://www.w3.org/2000/svg">
<path fill-rule="evenodd" clip-rule="evenodd" d="M32.5 0C14.5437 0 0 14.4528 0 32.2968C0 46.5881 9.30312 58.659 22.2219 62.9383C23.8469 63.2209 24.4562 62.252 24.4562 61.4042C24.4562 60.6372 24.4156 58.0938 24.4156 55.3889C16.25 56.8827 14.1375 53.4108 13.4875 51.5941C13.1219 50.6655 11.5375 47.7992 10.1563 47.0322C9.01875 46.4266 7.39375 44.9329 10.1156 44.8925C12.675 44.8521 14.5031 47.234 15.1125 48.2029C18.0375 53.0878 22.7094 51.7152 24.5781 50.8674C24.8625 48.7681 25.7156 47.3551 26.65 46.5477C19.4188 45.7403 11.8625 42.9547 11.8625 30.6012C11.8625 27.0889 13.1219 24.1822 15.1938 21.9214C14.8688 21.114 13.7313 17.8036 15.5188 13.3628C15.5188 13.3628 18.2406 12.515 24.4562 16.6732C27.0562 15.9465 29.8188 15.5832 32.5813 15.5832C35.3438 15.5832 38.1063 15.9465 40.7063 16.6732C46.9219 12.4746 49.6437 13.3628 49.6437 13.3628C51.4313 17.8036 50.2938 21.114 49.9688 21.9214C52.0406 24.1822 53.3 27.0485 53.3 30.6012C53.3 42.9951 45.7031 45.7403 38.4719 46.5477C39.65 47.557 40.6656 49.4948 40.6656 52.5226C40.6656 56.8423 40.625 60.3142 40.625 61.4042C40.625 62.252 41.2344 63.2613 42.8594 62.9383C49.3111 60.7737 54.9174 56.653 58.8891 51.1564C62.8608 45.6597 64.9981 39.0637 65 32.2968C65 14.4528 50.4563 0 32.5 0Z" fill="white"/>
</svg>
