<svg width="57" height="55" viewBox="0 0 57 55" fill="none" xmlns="http://www.w3.org/2000/svg">
<path d="M48.5667 46.8633H40.1211V34.101C40.1211 31.0577 40.0648 27.14 35.7285 27.14C31.3297 27.14 30.6566 30.4559 30.6566 33.8795V46.8625H22.2113V20.618H30.3189V24.2046H30.4324C31.2438 22.866 32.4163 21.7647 33.825 21.0181C35.2337 20.2715 36.8259 19.9076 38.432 19.9651C46.992 19.9651 48.5702 25.3981 48.5702 32.466L48.5667 46.8633V46.8633ZM12.6816 17.0308C9.97478 17.0312 7.78005 14.9142 7.77961 12.3023C7.77916 9.69045 9.973 7.57273 12.6798 7.5723C15.3867 7.57166 17.5814 9.68873 17.5818 12.3006C17.5821 13.5548 17.0659 14.7578 16.147 15.6449C15.228 16.532 13.9815 17.0305 12.6816 17.0308V17.0308ZM16.9045 46.8636H8.45003V20.618H16.9043V46.8633L16.9045 46.8636ZM52.7771 0.00400294H4.2062C1.91061 -0.0209189 0.0280547 1.75347 0 3.96851V51.0307C0.0271641 53.2468 1.9095 55.0229 4.20598 54.9997H52.7771C55.0785 55.0272 56.9682 53.2511 57 51.0307V3.96486C56.9673 1.74553 55.0774 -0.0286533 52.7771 0.000350602" fill="white"/>
</svg>
