<svg width="55" height="56" viewBox="0 0 55 56" fill="none" xmlns="http://www.w3.org/2000/svg">
<path d="M52.8 0H2.2C0.983125 0 0 1.001 0 2.24V53.76C0 54.999 0.983125 56 2.2 56H52.8C54.0169 56 55 54.999 55 53.76V2.24C55 1.001 54.0169 0 52.8 0ZM45.1 14.399L42.295 17.136C42.0475 17.325 41.9306 17.633 41.9787 17.934V38.073C41.9306 38.381 42.0475 38.689 42.295 38.871L45.045 41.608V42.217H31.24V41.636L34.0794 38.829C34.3613 38.542 34.3612 38.458 34.3612 38.031V21.735L26.455 42.147H25.3894L16.1906 21.735V35.42C16.1081 35.994 16.3075 36.575 16.7062 36.988L20.405 41.545V42.154H9.9V41.545L13.5987 36.988C13.7936 36.783 13.9387 36.5345 14.0222 36.2622C14.1058 35.9899 14.1256 35.7015 14.08 35.42V19.6C14.1281 19.159 13.9631 18.732 13.6331 18.431L10.3469 14.399V13.79H20.5562L28.435 31.395L35.3719 13.804H45.1V14.399Z" fill="white"/>
</svg>
